# xmcd
#
# Track frame offsets:
#	150
#	27445
#	53380
#	78402
#	102507
#	128865
#	154005
#	180612
#	205607
#	225680
#	259125
#
# Disc length: 3750 seconds
#
# Revision: 1
# Processed by: cddbd v1.5.1PL0 Copyright (c) Steve Scherf et al.
# Submitted via: CDex 1.50Beta5
#
DISCID=870ea40b
DTITLE=米倉利紀 - yone’s BODY and SOUL II Disc 2
DYEAR=2001
DGENRE=
TTITLE0=奇蹟-heart-
TTITLE1=あの夏の日…
TTITLE2=jamaica,Under the sky
TTITLE3=恋風
TTITLE4=could’ve
TTITLE5=Body and Soul
TTITLE6=like,love,need…
TTITLE7=no pressure for love
TTITLE8=flexible
TTITLE9=ANNIVERSARY(angel version)
TTITLE10=Searchin’(live version)
EXTD=
EXTT0=
EXTT1=
EXTT2=
EXTT3=
EXTT4=
EXTT5=
EXTT6=
EXTT7=
EXTT8=
EXTT9=
EXTT10=
PLAYORDER=
